<svg xmlns="http://www.w3.org/2000/svg" width="128" height="128" viewBox="0 0 128 128">
  <title>BATH</title>
  <g>
    <path d="M74.67,43.5c2.52,0,4.494-2.364,4.494-5.383s-1.974-5.383-4.494-5.383-4.494,2.365-4.494,5.383S72.15,43.5,74.67,43.5Zm0-7.266c.395,0,.994.751.994,1.883S75.065,40,74.67,40s-.994-.751-.994-1.883S74.274,36.232,74.67,36.232Z"/>
    <path d="M56.12,43.5c2.52,0,4.493-2.364,4.493-5.383s-1.973-5.383-4.493-5.383-4.495,2.365-4.495,5.383S53.6,43.5,56.12,43.5Zm0-7.266c.4,0,.993.751.993,1.883S56.515,40,56.12,40s-.995-.751-.995-1.883S55.724,36.232,56.12,36.232Z"/>
    <path d="M60.275,47.267a11.7,11.7,0,0,0,3.369,2.784v1.127a2.889,2.889,0,0,1-4.931,2.035,2.844,2.844,0,0,1-.843-2.035,1.75,1.75,0,0,0-3.5,0A6.385,6.385,0,0,0,61.3,57.536c.638,2.29,2.2,3.845,4.1,3.845s3.46-1.555,4.1-3.845a6.382,6.382,0,0,0,6.927-6.358,1.75,1.75,0,0,0-3.5,0,2.888,2.888,0,0,1-5.776,0V50.051a11.68,11.68,0,0,0,3.367-2.78,2.726,2.726,0,0,0-1.8-4.443,30.275,30.275,0,0,0-6.635,0A2.726,2.726,0,0,0,60.275,47.267Zm5.923,9a2.748,2.748,0,0,1-.775,1.62,2.472,2.472,0,0,1-.833-1.625,6.343,6.343,0,0,0,.8-.711A4.558,4.558,0,0,0,66.2,56.265Zm.473-10.089a9.218,9.218,0,0,1-1.277.875,9.3,9.3,0,0,1-1.276-.875C64.971,46.136,65.807,46.133,66.671,46.176Z"/>
    <path d="M30.227,24.24a7.739,7.739,0,1,0-7.738,7.738A7.747,7.747,0,0,0,30.227,24.24Zm-11.977,0a4.239,4.239,0,1,1,4.239,4.238A4.243,4.243,0,0,1,18.25,24.24Z"/>
    <path d="M21.3,40.565a5.9,5.9,0,1,0,5.9-5.9A5.907,5.907,0,0,0,21.3,40.565Zm8.3,0a2.4,2.4,0,1,1-2.4-2.4A2.4,2.4,0,0,1,29.6,40.565Z"/>
    <path d="M96.908,36.415a7.083,7.083,0,1,0,7.083-7.083A7.091,7.091,0,0,0,96.908,36.415Zm7.083-3.583a3.583,3.583,0,1,1-3.583,3.583A3.587,3.587,0,0,1,103.991,32.832Z"/>
    <path d="M103.991,51.3a5.2,5.2,0,1,0,5.2,5.2A5.2,5.2,0,0,0,103.991,51.3Zm0,6.893a1.7,1.7,0,1,1,1.7-1.7A1.7,1.7,0,0,1,103.991,58.19Z"/>
    <path d="M106.765,97.217,108.221,78.5A7,7,0,0,0,106.25,64.79H95.1a11.835,11.835,0,0,0-7.184-5.263,21.515,21.515,0,0,0,1.706-2.605,18.809,18.809,0,0,1,4.692,4.355,1.75,1.75,0,0,0,2.766-2.144,22.08,22.08,0,0,0-6.04-5.459A21.6,21.6,0,0,0,92,49.708a19.212,19.212,0,0,1,4.83,2.578,1.751,1.751,0,0,0,2.056-2.834,22.279,22.279,0,0,0-6.626-3.341V43.37A26.694,26.694,0,0,0,90.38,33.5a29.694,29.694,0,0,0,9.31-21.6,1.751,1.751,0,0,0-1.75-1.75,29.815,29.815,0,0,0-21.192,8.873,26.4,26.4,0,0,0-9.763-2.475,6.462,6.462,0,0,0-12.695,1.7c0,.212.037.418.057.627-.108.049-.212.1-.319.15A29.789,29.789,0,0,0,32.84,10.15a1.75,1.75,0,0,0-1.75,1.75A29.764,29.764,0,0,0,40.4,33.505,26.558,26.558,0,0,0,38.52,43.37v2.744A22.3,22.3,0,0,0,31.9,49.453a1.75,1.75,0,1,0,2.055,2.832,19.294,19.294,0,0,1,4.82-2.58,21.584,21.584,0,0,0,.967,3.974,22.071,22.071,0,0,0-6.033,5.454,1.75,1.75,0,1,0,2.766,2.144,18.8,18.8,0,0,1,4.684-4.352,21.455,21.455,0,0,0,1.7,2.594,11.87,11.87,0,0,0-7.169,5.271H24.54a7,7,0,0,0-1.971,13.716L24.1,98.175A20.431,20.431,0,0,0,44.37,116.94H86.42A20.144,20.144,0,0,0,99.661,112a8.2,8.2,0,0,0,7.1-14.782Zm1.958-27.9a3.5,3.5,0,0,1-2.473,5.973H95.982a11.767,11.767,0,0,0,.554-7h9.714A3.479,3.479,0,0,1,108.723,69.317ZM93.33,70.91a8.177,8.177,0,0,1-2.384,5.8V71.542a1.75,1.75,0,0,0-3.5,0v7.272a8.27,8.27,0,0,1-4.725,0v-7.27a1.75,1.75,0,0,0-3.5,0v5.165a8.244,8.244,0,1,1,14.109-5.8ZM57.163,68.29H73.628a11.67,11.67,0,0,0,.555,7H56.606a11.647,11.647,0,0,0,.854-4.38A11.806,11.806,0,0,0,57.163,68.29Zm9.8-48.238a22.93,22.93,0,0,1,10.128,3.093,7.638,7.638,0,0,1-11.931-.169A6.474,6.474,0,0,0,66.96,20.052Zm19.076,6.136a26.6,26.6,0,0,0-2.3-2.44,10.309,10.309,0,0,1,4.278-1.913A10.22,10.22,0,0,1,86.036,26.188Zm2.751,3.969q-.3-.533-.629-1.051A13.705,13.705,0,0,0,91.69,19.9a1.751,1.751,0,0,0-1.75-1.746,13.8,13.8,0,0,0-8.978,3.344c-.182-.13-.821-.573-1.018-.7a26.324,26.324,0,0,1,16.183-7.081A26.188,26.188,0,0,1,88.787,30.157ZM60.76,15.29a2.965,2.965,0,1,1-2.97,2.96A2.964,2.964,0,0,1,60.76,15.29ZM44.75,26.183a10.285,10.285,0,0,1-1.976-4.347,10.334,10.334,0,0,1,4.274,1.908A26.832,26.832,0,0,0,44.75,26.183Zm-10.1-12.47A26.3,26.3,0,0,1,50.833,20.8c-.344.221-.669.463-1,.7A13.825,13.825,0,0,0,40.84,18.15a1.75,1.75,0,0,0-1.75,1.75,13.759,13.759,0,0,0,3.539,9.2q-.328.522-.634,1.06A26.262,26.262,0,0,1,34.652,13.713Zm13.8,37.322a15.472,15.472,0,0,0-5.549,1.105,18.165,18.165,0,0,1-.718-3.273,12.444,12.444,0,0,1,5.039.264,1.75,1.75,0,0,0,1.1-3.323,15.733,15.733,0,0,0-6.3-.437v-2A23.356,23.356,0,0,1,55.608,22.148,6.463,6.463,0,0,0,61.991,24.6a11.152,11.152,0,0,0,17.989.528l.029.021A23.3,23.3,0,0,1,88.76,43.37v2a15.71,15.71,0,0,0-6.3.439,1.75,1.75,0,1,0,1.107,3.32,12.521,12.521,0,0,1,5.019-.254,18.314,18.314,0,0,1-.716,3.263,15.49,15.49,0,0,0-5.542-1.1,1.751,1.751,0,0,0-1.682,1.816,1.721,1.721,0,0,0,1.815,1.682,11.957,11.957,0,0,1,4.025.814A18.259,18.259,0,0,1,83.5,59.3a11.793,11.793,0,0,0-8.345,5.321c-.036.057-.059.111-.094.168H55.725c-.032-.051-.055-.106-.087-.157A11.78,11.78,0,0,0,47.273,59.3a18.212,18.212,0,0,1-2.982-3.949,12.256,12.256,0,0,1,4.042-.815,1.728,1.728,0,0,0,1.806-1.682A1.751,1.751,0,0,0,48.456,51.035ZM45.71,62.67a8.235,8.235,0,0,1,5.858,14.038V71.542a1.75,1.75,0,0,0-3.5,0v7.271a8.261,8.261,0,0,1-4.725,0v-7.27a1.75,1.75,0,0,0-3.5,0v5.167A8.242,8.242,0,0,1,45.71,62.67ZM21.04,71.79a3.5,3.5,0,0,1,3.5-3.5h9.714a11.767,11.767,0,0,0,.554,7H24.54a3.506,3.506,0,0,1-3.5-3.5Zm23.33,41.65A16.917,16.917,0,0,1,27.584,97.9L26.1,78.79H37.022a11.853,11.853,0,0,0,3.847,2.835l.016.006c.025.011.052.02.078.031a11.655,11.655,0,0,0,9.476,0l.094-.037.014-.006a11.856,11.856,0,0,0,3.842-2.832H76.4a11.874,11.874,0,0,0,3.847,2.835l.01,0c.03.013.06.024.09.035a11.652,11.652,0,0,0,9.479,0c.026-.01.051-.019.076-.03l.023-.009a11.86,11.86,0,0,0,3.842-2.832h10.92l-1.364,17.577c-.065,0-.129-.01-.194-.01a8.205,8.205,0,0,0-6.305,13.463,16.67,16.67,0,0,1-10.406,3.62Zm58.761-4.161a4.711,4.711,0,1,1,4.711-4.711A4.716,4.716,0,0,1,103.131,109.279Z"/>
  </g>
</svg>
