<svg xmlns="http://www.w3.org/2000/svg" width="100" height="100" viewBox="0 0 100 100" id="thinking"><g fill="none" fill-rule="evenodd" transform="translate(-600 -600)"><g transform="translate(608.824 605)"><path fill="#A9C0DD" d="M39.1911849,78.9510158 C55.4936018,81.8084047 52.7825972,54.6586612 74.3391362,60.4759908 C74.3391362,81.870432 56.0810158,83.4233879 39.167569,80.7786056 L39.1911849,78.9510158 Z" transform="rotate(-11 56.753 70.702)"></path><path fill="#FFF" d="M63.3545991,58.4378122 C65.9883204,57.6055459 69.1973117,57.5265095 73.274399,58.6267678 C73.274399,63.0569872 72.4538312,66.6196864 71.0103639,69.462944 C70.4090338,70.6474088 69.1814288,67.5634222 62.2076588,71.1871376 C62.1793961,68.1170298 65.7836042,64.7460539 65.7836042,64.7460539 C65.7836042,64.7460539 60.9156642,64.4420692 58.2783554,67.8222929 C57.8436875,64.8345673 61.7037183,58.959497 63.3545991,58.4378122 Z" transform="rotate(-11 65.76 64.497)"></path><path fill="#A9C0DD" d="M25.5075684,58 C25.5075684,58 20.5582325,66.9708371 21.8911264,72.2683499 C21.5848964,78.5328631 23.6977487,86.123396 30.3416778,86.123396 L37.4168923,86.123396 C44.0481875,86.123396 47.828751,81.634277 47.828751,74.425532 C47.828751,67.2167871 43.6013494,62.8238164 39.8819126,59.5176504 L38.1745559,58 L25.5075684,58 Z"></path><path fill="#FFF" d="M30,85.5 C32.8491211,86.1728516 36,84.7142551 36,80.2732397 C36,75.8322243 33.3137085,69.8197191 30,69.8197191 C26.6862915,69.8197191 25.5075684,75.4012698 25.5075684,79.8422852 C25.5075684,84.2833005 27.1508789,84.8271484 30,85.5 Z"></path><path fill="#A9C0DD" d="M55.2434464,4.21404936 C70.7753204,9.11186448 71.360434,27.6757198 71.5471065,34.7923141 C72.597465,37.3046415 73.1038636,40.0203709 73.1038636,42.8539456 C73.1038636,55.7542265 62.6079199,66.2119703 38.0668266,66.2119703 C13.5257332,66.2119703 3.849158,54.5370578 3.81985329,42.5185951 C3.8122557,39.40267 4.46099335,36.3549193 5.85392137,33.5494348 C5.02591374,28.8702972 3.42818637,17.1768857 6.27395961,8.67387141 C19.7229612,6.6605942 27.4888696,16.1482185 30.0123719,19.9368599 C32.4969138,19.6482547 35.1793894,19.4959209 38.0668266,19.4959209 C40.6680312,19.4959209 43.1114429,19.6134105 45.4012881,19.838845 C45.9629544,16.2412974 48.0429663,7.57452576 55.2434464,4.21404936 Z" transform="rotate(6 38.462 35.213)"></path><path fill="#FFE5CD" d="M9.21570416,9.89423483 C17.0333606,9.99706052 23.1123645,16.3801222 26.2815844,20.5970435 C18.2930625,22.3060821 12.7019767,25.5977754 9.23670774,29.8586162 C8.37596284,24.8405079 7.37423653,16.1944832 9.21570416,9.89423483 Z M56.9165124,5.82042688 C65.38372,11.3729668 66.8074382,20.4422307 66.7374474,26.2425379 C62.5506202,23.0844738 56.6751143,20.8113112 48.9300638,19.8317811 C50.2298614,15.2939832 52.7797797,8.51453531 56.9165124,5.82042688 Z" transform="rotate(6 37.46 17.84)"></path><path fill="#FFF" d="M30.8508715,65.212276 C45.3464554,66.3282207 54.3508715,63.3326698 54.3508715,56.9373935 C54.3508715,50.5421172 45.80147,36.3122658 27.3508715,36.3122658 C8.90027303,36.3122658 7.38130891,50.8767604 7.38130891,54.4088377 C7.38130891,57.940915 17.6774263,64.1981164 30.8508715,65.212276 Z" transform="rotate(6 30.866 50.877)"></path></g><g fill="#414E62" transform="translate(608.773 605.05)"><path d="M67.1263255,56.988348 C68.6626369,56.7621525 70.3834632,56.706428 72.3205614,56.8542167 C72.6535614,56.8782167 72.9285614,57.1222167 72.9915614,57.4492167 C74.5465614,65.8952167 72.5785614,71.7752167 68.6185614,75.8342167 C63.3055607,81.2806091 54.334164,83.4114139 45.4976251,84.0736754 C43.6293769,86.0333245 40.9699695,87.1341064 37.6195614,87.1632167 C37.6195614,87.1632167 31.6355614,87.1992167 31.6355614,87.1992167 C27.9785614,87.1922167 25.3115614,85.6702167 23.6345614,83.2792167 C22.0445614,81.0112167 21.3605614,77.9432167 21.5645614,74.6752167 C21.6436084,73.5718526 21.7678552,72.3217397 21.9242343,71.0103963 L22.9675334,72.8240851 C22.9277421,73.4974621 22.8982173,74.1407758 22.8825614,74.7402167 C22.7795614,77.6612167 23.4485614,80.3752167 24.8995614,82.3772167 C26.3375614,84.3602167 28.5685614,85.6182167 31.6355614,85.6122167 L31.7749333,85.6130551 C32.6741069,85.6184646 37.6195614,85.6482167 37.6195614,85.6482167 C40.8115614,85.6752167 43.3085614,84.5972167 44.9765614,82.6012167 C46.5635614,80.7032167 47.4075614,78.0082167 47.4415614,74.7072167 C47.4795614,71.4912167 46.6405614,68.8452167 45.3775614,66.6082167 L45.26244,66.4120689 L46.2733743,66.2038822 C47.5871547,68.4326827 48.4953805,71.0630754 48.6104851,74.2432228 L48.6215614,74.7072167 C48.640259,76.5491843 48.415845,78.2226081 47.9683217,79.7021945 C48.6957089,79.0508284 49.3285597,78.2990834 49.8965614,77.4742167 C50.7045614,76.3002167 51.3815614,74.9802167 52.0165614,73.5922167 C53.0405614,71.3562167 53.9475614,68.9442167 55.0695614,66.6722167 C55.4969699,65.8068239 55.9553659,64.9613801 56.4608032,64.1524241 L58.9393501,63.3426775 C57.6429545,64.9380309 56.6368824,66.7779999 55.7165614,68.6692167 C54.8265614,70.4982167 54.0135614,72.3712167 53.1205614,74.1252167 C52.3975614,75.5472167 51.6225614,76.8912167 50.7095614,78.0692167 C49.790677,79.2537334 48.7403222,80.2766959 47.4752639,81.0489135 C47.0878117,81.9459726 46.6042839,82.7539934 46.0315614,83.4662167 C46.0062162,83.4977197 45.9806953,83.5290392 45.9549993,83.5601744 C54.39715,82.6673409 62.8631355,80.4046138 67.8275614,75.0792167 C71.3705614,71.2782167 73.0785614,65.8942167 71.6535614,58.2952167 C69.3359084,58.1869362 67.3738627,58.399659 65.6923017,58.8632216 Z"></path><path d="M23.5575614 63.2102167C22.9255614 63.6332167 22.3475614 64.2882167 21.8625614 65.1072167 21.6785614 65.4182167 21.5255614 65.7502167 21.3855614 66.0982167 21.1145614 66.7782167 20.9285614 67.5092167 20.8375614 68.2372167 20.7735614 68.7462167 20.7705614 69.2552167 20.8135614 69.7412167 20.8615614 70.2822167 20.9745614 70.7972167 21.1485614 71.2622167 21.6355614 72.5602167 22.5525614 73.5112167 23.9775614 73.7212167 25.0025614 73.8622167 25.6505614 73.6722167 26.0665614 73.2932167 26.3065614 73.0742167 26.4895614 72.8022167 26.6005614 72.4682167 26.8585614 71.6972167 26.7775614 70.5962167 26.7865614 69.5112167 26.7955614 68.5642167 26.8785614 67.6342167 27.4895614 67.0212167 27.5565614 66.9622167 27.5625614 66.8602167 27.5035614 66.7942167 27.4445614 66.7272167 27.3425614 66.7212167 27.2765614 66.7802167 26.5045614 67.3812167 26.2515614 68.4022167 26.1125614 69.4642167 25.9845614 70.4332167 25.9705614 71.4302167 25.6605614 72.0932167 25.4515614 72.5422167 25.0315614 72.6762167 24.2165614 72.4752167 23.4675614 72.2982167 23.0105614 71.7792167 22.7315614 71.1212167 22.5405614 70.6722167 22.4495614 70.1522167 22.4045614 69.6032167 22.3715614 69.2022167 22.3675614 68.7872167 22.3845614 68.3652167 22.4105614 67.7302167 22.4825614 67.0882167 22.6065614 66.4672167 22.7645614 65.6722167 22.9675614 64.9312167 23.2755614 64.3002167 23.4315614 63.9812167 23.5815614 63.6952167 23.7755614 63.4482167 23.8405614 63.3882167 23.8455614 63.2862167 23.7855614 63.2212167 23.7255614 63.1552167 23.6235614 63.1502167 23.5575614 63.2102167zM39.5665614 66.8422167C39.6575614 67.1292167 39.7005614 67.4262167 39.7405614 67.7492167 39.8205614 68.4132167 39.7695614 69.1192167 39.6545614 69.8452167 39.5925614 70.2322167 39.5045614 70.6132167 39.4005614 70.9912167 39.2465614 71.5532167 39.0265614 72.0842167 38.7665614 72.5652167 38.2015614 73.6142167 37.3735614 74.4142167 36.1185614 74.2562167 35.2925614 74.1692167 34.9445614 73.9072167 34.9015614 73.4192167 34.8365614 72.6912167 35.1615614 71.7502167 35.3705614 70.7962167 35.6005614 69.7492167 35.7105614 68.7032167 35.1885614 67.8742167 35.1455614 67.7962167 35.0475614 67.7672167 34.9695614 67.8102167 34.8915614 67.8522167 34.8625614 67.9502167 34.9045614 68.0282167 35.3385614 68.9682167 34.9175614 70.0732167 34.5115614 71.1272167 34.1885614 71.9672167 33.8835614 72.7752167 33.8635614 73.4512167 33.8535614 73.8052167 33.9335614 74.1262167 34.0845614 74.4162167 34.3475614 74.9172167 34.8935614 75.3202167 35.9105614 75.5402167 37.2725614 75.8202167 38.4095614 75.3702167 39.2845614 74.5212167 39.6295614 74.1862167 39.9315614 73.7802167 40.1745614 73.3242167 40.3935614 72.9132167 40.5715614 72.4612167 40.6905614 71.9872167 40.8595614 71.3162167 40.9395614 70.6082167 40.9105614 69.9092167 40.8955614 69.5582167 40.8615614 69.2162167 40.7895614 68.8802167 40.6095614 68.0372167 40.2975614 67.2912167 39.8525614 66.6932167 39.8115614 66.6142167 39.7135614 66.5832167 39.6345614 66.6252167 39.5565614 66.6662167 39.5255614 66.7632167 39.5665614 66.8422167z"></path><path d="M55.4179122,4 C61.1128978,4.53511261 71.8991038,11.7814292 72.9107718,37.0488931 C73.5381451,38.8455404 73.8697183,40.7204807 73.8697183,42.6485217 C73.8697183,58.4907016 58.1987615,66.6485217 38.8676567,66.6485217 C19.5365519,66.6485217 3.57576225,58.91147 3.57576225,42.6485217 C3.57576225,39.1642171 4.30839784,36.0712702 5.64984852,33.3619229 C3.78039836,25.0353088 4.27352266,12.7403311 6.07246481,8.40293017 C10.776539,7.38792085 21.1828218,7.52113713 30.456848,19.170681 C33.1566388,18.8218367 35.9743991,18.6485217 38.8676567,18.6485217 C41.0018107,18.6485217 43.0913542,18.7794855 45.1201258,19.0303316 C47.7126251,9.52830113 52.5608744,5.19802832 55.4179122,4 Z M55.4179122,5.18181833 C52.9445749,6.38293395 49.9675695,8.39151938 46.2696604,20.2918491 C43.7337708,19.8716475 41.0855832,19.6485217 38.361472,19.6485217 C19.8553785,19.6485217 4.57576225,27.0631961 4.57576225,42.6485217 C4.57576225,58.2338472 19.8553785,65.6485217 38.361472,65.6485217 C56.8675654,65.6485217 71.8697183,57.8306108 71.8697183,42.6485217 C71.8697183,40.7049956 71.5185199,38.8177726 70.8573071,37.0151213 C71.0365354,25.3567476 66.2273808,7.67434652 55.4179122,5.18181833 Z M6.67193004,9.0756763 C4.7545433,14.70199 5.40645672,26.0632347 6.74187901,31.4455402 C10.854879,25.0849019 18.6449074,21.1523844 28.127862,19.5212293 C21.3314196,10.2123254 11.3850748,8.2070679 6.67193004,9.0756763 Z" transform="rotate(6 38.723 35.324)"></path><path d="M38.6369979,18.9989449 C39.1127807,18.9989449 39.5824523,19.0042125 40.0460474,19.0146571 L39.991502,19.2863462 L39.991502,19.2863462 L39.9259879,19.6024334 C38.8925498,24.4643774 36.919891,28.1645331 35.5199312,27.8669625 C34.1779222,27.5817097 33.8493352,23.7263972 34.7347722,19.1248905 C35.9867806,19.0413355 37.2872994,18.9989449 38.6369979,18.9989449 Z M33.8402664,19.1911364 C32.9695646,22.5907921 31.7255267,25.0467722 30.894697,24.8701739 C30.1560612,24.713172 29.9653822,22.5224815 30.3448686,19.6070513 C31.4450325,19.4333769 32.5901269,19.295787 33.7805504,19.1956298 Z M40.7919749,19.0360995 C41.9638594,19.0771527 43.0959168,19.1519202 44.1887313,19.2588745 C43.3186509,22.6239547 42.0858234,25.0455756 41.2606235,24.8701739 C40.4866619,24.7056633 40.3143233,22.3082877 40.7691574,19.1839249 Z" transform="rotate(4 37.172 23.441)"></path><ellipse cx="17.73" cy="45.052" rx="3" ry="3.5"></ellipse><ellipse cx="35.526" cy="47.928" rx="3" ry="3.5"></ellipse><path d="M50.4035614 58.8142167C50.4035614 58.8142167 50.5055614 58.8532167 50.7525614 58.9062167 50.9605614 58.9522167 51.2025614 59.0012167 51.5525614 59.0422167 51.7295614 59.0632167 51.9075614 59.0762167 52.1135614 59.0782167 52.2895614 59.0802167 52.4715614 59.0732167 52.6625614 59.0532167 52.8595614 59.0322167 53.0625614 58.9952167 53.2655614 58.9502167 53.5615614 58.8852167 53.8565614 58.7962167 54.1545614 58.7082167 54.6325614 58.5672167 55.0915614 58.4162167 55.5265614 58.2702167 56.6975614 57.8792167 57.5745614 57.5562167 57.5745614 57.5562167 57.6615614 57.5412167 57.7205614 57.4572167 57.7055614 57.3702167 57.6895614 57.2822167 57.6065614 57.2242167 57.5185614 57.2392167 57.5185614 57.2392167 56.5845614 57.2332167 55.3505614 57.2642167 54.8915614 57.2752167 54.4085614 57.2892167 53.9115614 57.3192167 53.6015614 57.3382167 53.2935614 57.3542167 52.9925614 57.3942167 52.7855614 57.4212167 52.5835614 57.4562167 52.3915614 57.5032167 52.2045614 57.5482167 52.0315614 57.6042167 51.8655614 57.6662167 51.6725614 57.7382167 51.5105614 57.8112167 51.3505614 57.8902167 51.0355614 58.0482167 50.8245614 58.1772167 50.6445614 58.2902167 50.4305614 58.4252167 50.3485614 58.4962167 50.3485614 58.4962167 50.2605614 58.5122167 50.2015614 58.5952167 50.2175614 58.6832167 50.2325614 58.7702167 50.3165614 58.8292167 50.4035614 58.8142167zM50.0455614 61.7992167C50.0455614 61.7992167 50.1275614 61.8632167 50.3425614 61.9822167 50.5235614 62.0832167 50.7315614 62.1952167 51.0455614 62.3302167 51.2035614 62.3982167 51.3635614 62.4592167 51.5535614 62.5162167 51.7165614 62.5662167 51.8865614 62.6092167 52.0685614 62.6412167 52.2555614 62.6742167 52.4525614 62.6932167 52.6525614 62.7052167 52.9445614 62.7232167 53.2405614 62.7172167 53.5395614 62.7132167 54.0185614 62.7062167 54.4825614 62.6852167 54.9235614 62.6632167 56.1115614 62.6042167 57.0075614 62.5302167 57.0075614 62.5302167 57.0955614 62.5402167 57.1745614 62.4752167 57.1845614 62.3872167 57.1935614 62.2992167 57.1295614 62.2192167 57.0405614 62.2102167 57.0405614 62.2102167 56.1805614 61.9522167 55.0305614 61.6472167 54.6035614 61.5342167 54.1545614 61.4172167 53.6865614 61.3102167 53.3945614 61.2442167 53.1065614 61.1772167 52.8185614 61.1342167 52.6195614 61.1042167 52.4235614 61.0822167 52.2335614 61.0752167 52.0485614 61.0692167 51.8735614 61.0762167 51.7035614 61.0902167 51.5055614 61.1072167 51.3365614 61.1332167 51.1675614 61.1672167 50.8325614 61.2332167 50.6055614 61.3002167 50.4085614 61.3602167 50.1725614 61.4332167 50.0795614 61.4782167 50.0795614 61.4782167 49.9905614 61.4692167 49.9115614 61.5332167 49.9025614 61.6222167 49.8925614 61.7102167 49.9575614 61.7892167 50.0455614 61.7992167zM9.97456143 51.2362167C9.97456143 51.2362167 9.90856143 51.1492167 9.72756143 50.9732167 9.57456143 50.8252167 9.39556143 50.6552167 9.11956143 50.4352167 8.98056143 50.3242167 8.83656143 50.2192167 8.66256143 50.1092167 8.51356143 50.0142167 8.35556143 49.9232167 8.18256143 49.8402167 8.00456143 49.7542167 7.81356143 49.6772167 7.61656143 49.6082167 7.33056143 49.5072167 7.03356143 49.4272167 6.73356143 49.3442167 6.25356143 49.2122167 5.78356143 49.0972167 5.33756143 48.9912167 4.13656143 48.7042167 3.22156143 48.5152167 3.22156143 48.5152167 3.13956143 48.4822167 3.04556143 48.5222167 3.01156143 48.6052167 2.97856143 48.6872167 3.01856143 48.7812167 3.10156143 48.8142167 3.10156143 48.8142167 3.89156143 49.3132167 4.95556143 49.9392167 5.35156143 50.1712167 5.76856143 50.4152167 6.20656143 50.6522167 6.47956143 50.8002167 6.74956143 50.9482167 7.02556143 51.0742167 7.21556143 51.1602167 7.40556143 51.2382167 7.59456143 51.2992167 7.77656143 51.3592167 7.95356143 51.4032167 8.12656143 51.4382167 8.32856143 51.4792167 8.50456143 51.5032167 8.68256143 51.5202167 9.03356143 51.5532167 9.28056143 51.5542167 9.49356143 51.5532167 9.74656143 51.5522167 9.85356143 51.5352167 9.85356143 51.5352167 9.93656143 51.5682167 10.0305614 51.5282167 10.0635614 51.4462167 10.0965614 51.3632167 10.0565614 51.2692167 9.97456143 51.2362167zM9.61756143 54.2092167C9.61756143 54.2092167 9.55556143 54.1512167 9.36456143 54.0302167 9.20856143 53.9312167 9.04156143 53.8272167 8.76656143 53.6942167 8.63056143 53.6282167 8.49756143 53.5712167 8.33256143 53.5152167 8.19356143 53.4682167 8.04956143 53.4282167 7.89256143 53.3982167 7.73256143 53.3682167 7.56356143 53.3512167 7.39156143 53.3432167 7.14156143 53.3302167 6.88756143 53.3402167 6.63056143 53.3482167 6.21656143 53.3622167 5.82156143 53.3902167 5.44156143 53.4182167 4.41356143 53.4962167 3.65056143 53.5822167 3.65056143 53.5822167 3.56156143 53.5732167 3.48256143 53.6372167 3.47356143 53.7252167 3.46356143 53.8142167 3.52856143 53.8932167 3.61656143 53.9022167 3.61656143 53.9022167 4.34556143 54.1462167 5.33456143 54.4352167 5.70056143 54.5422167 6.08156143 54.6512167 6.48356143 54.7512167 6.73356143 54.8122167 6.97856143 54.8752167 7.22656143 54.9142167 7.39656143 54.9412167 7.56456143 54.9602167 7.72856143 54.9642167 7.88756143 54.9682167 8.03656143 54.9582167 8.18256143 54.9412167 8.35556143 54.9212167 8.49756143 54.8932167 8.64456143 54.8572167 8.94156143 54.7832167 9.12556143 54.7162167 9.29956143 54.6522167 9.51056143 54.5742167 9.58356143 54.5292167 9.58356143 54.5292167 9.67256143 54.5392167 9.75156143 54.4742167 9.76056143 54.3862167 9.76956143 54.2982167 9.70556143 54.2182167 9.61756143 54.2092167zM32.5895614 42.7822167C32.5895614 42.7822167 32.9965614 42.3762167 33.6695614 41.8362167 33.9825614 41.5862167 34.3495614 41.3362167 34.7705614 41.0832167 35.0445614 40.9182167 35.3415614 40.7672167 35.6615614 40.6272167 36.0845614 40.4432167 36.5445614 40.2652167 37.0815614 40.2202167 38.0565614 40.1032167 38.8485614 40.3752167 39.4745614 40.7882167 40.6955614 41.5952167 41.3285614 42.8172167 41.3285614 42.8172167 41.3595614 42.9002167 41.4525614 42.9422167 41.5365614 42.9102167 41.6195614 42.8792167 41.6605614 42.7862167 41.6295614 42.7032167 41.6295614 42.7032167 41.2245614 41.2102167 40.0525614 40.0702167 39.3365614 39.3732167 38.3395614 38.8652167 37.0325614 38.7982167 36.2885614 38.7872167 35.6115614 38.9102167 35.0265614 39.1622167 34.5935614 39.3492167 34.2115614 39.6032167 33.8865614 39.8862167 33.7135614 40.0362167 33.5565614 40.1902167 33.4185614 40.3562167 33.1935614 40.6262167 33.0025614 40.8852167 32.8555614 41.1512167 32.6715614 41.4842167 32.5485614 41.7712167 32.4635614 42.0262167 32.3335614 42.4152167 32.2985614 42.6432167 32.2985614 42.6432167 32.2605614 42.7242167 32.2945614 42.8202167 32.3745614 42.8582167 32.4555614 42.8962167 32.5515614 42.8622167 32.5895614 42.7822167zM24.5395614 57.9902167C24.5395614 57.9902167 24.8265614 57.9732167 25.4615614 57.9212167 25.6205614 57.9092167 25.7795614 57.9062167 25.9745614 57.8842167 26.0795614 57.8722167 26.1865614 57.8642167 26.3015614 57.8452167 26.4175614 57.8272167 26.5375614 57.8092167 26.6635614 57.7842167 26.7785614 57.7602167 26.8975614 57.7292167 27.0215614 57.6982167 27.5305614 57.5732167 28.0995614 57.4392167 28.7885614 57.3892167 29.3765614 57.3452167 29.9995614 57.3152167 30.7255614 57.3782167 30.8115614 57.4022167 30.9005614 57.3512167 30.9235614 57.2652167 30.9465614 57.1792167 30.8965614 57.0912167 30.8105614 57.0672167 29.9465614 56.6582167 29.1845614 56.4082167 28.4615614 56.2682167 27.8255614 56.1442167 27.2555614 56.1162167 26.7455614 56.1612167 26.4875614 56.1842167 26.2445614 56.2292167 26.0295614 56.3022167 25.7705614 56.3902167 25.5525614 56.4992167 25.3625614 56.6242167 25.1675614 56.7522167 25.0175614 56.8622167 24.8875614 56.9942167 24.7185614 57.1652167 24.6155614 57.2832167 24.5285614 57.4142167 24.3815614 57.6362167 24.3455614 57.7342167 24.3455614 57.7342167 24.2655614 57.7992167 24.2555614 57.9012167 24.3125614 57.9692167 24.3695614 58.0382167 24.4715614 58.0472167 24.5395614 57.9902167zM22.7485614 40.6042167C22.7485614 40.6042167 22.7375614 40.4262167 22.6655614 40.0902167 22.6205614 39.8752167 22.5525614 39.6422167 22.4405614 39.3512167 22.3395614 39.0872167 22.1995614 38.8252167 22.0255614 38.5452167 21.9575614 38.4352167 21.8775614 38.3322167 21.7925614 38.2282167 21.5705614 37.9582167 21.3115614 37.7012167 21.0145614 37.4892167 20.5605614 37.1662167 20.0305614 36.9432167 19.4665614 36.8332167 18.7195614 36.7162167 18.0385614 36.8012167 17.4445614 37.0592167 16.1295614 37.6312167 15.3165614 38.8082167 15.3165614 38.8082167 15.2575614 38.8742167 15.2635614 38.9762167 15.3305614 39.0352167 15.3965614 39.0942167 15.4985614 39.0882167 15.5575614 39.0222167 15.5575614 39.0222167 16.3165614 38.3932167 17.3565614 38.1002167 17.8865614 37.9502167 18.4855614 37.9272167 19.1015614 38.1722167 19.4695614 38.3012167 19.7715614 38.5412167 20.0715614 38.7712167 20.2615614 38.9172167 20.4465614 39.0652167 20.6235614 39.2142167 20.8255614 39.3822167 21.0235614 39.5322167 21.2055614 39.6892167 21.3825614 39.8412167 21.5435614 39.9652167 21.6945614 40.0932167 22.1725614 40.4972167 22.4575614 40.7422167 22.4575614 40.7422167 22.4955614 40.8222167 22.5915614 40.8562167 22.6725614 40.8182167 22.7525614 40.7802167 22.7865614 40.6842167 22.7485614 40.6042167z"></path></g></g></svg>